<svg width="126" height="126" viewBox="0 0 126 126" fill="none" xmlns="http://www.w3.org/2000/svg">
<path d="M112.117 25.066C91.168 -2.062 52.191 -7.07 25.062 13.883C-2.063 34.836 -7.066 73.813 13.887 100.938C34.844 128.062 73.824 133.062 100.945 112.105C128.059 91.152 133.063 52.187 112.117 25.066Z" fill="#F37036"/>
<path d="M90.078 23.164C87.9414 23.3349 85.9156 24.185 84.297 25.59C82.4028 27.2351 81.1938 29.5304 80.9088 32.023C80.6237 34.5157 81.2831 37.0247 82.757 39.055C84.2296 41.0857 86.4096 42.4909 88.8672 42.9935C91.3247 43.4961 93.8814 43.0595 96.033 41.77H96.035L96.191 41.926C96.8997 41.52 97.559 41.0334 98.156 40.476C99.9978 38.528 101.011 35.9407 100.982 33.26C100.953 30.5792 99.8837 28.0146 98 26.107V26.105L89.156 34.894L89 34.739L97.844 25.946C96.8202 24.9591 95.5985 24.2009 94.2597 23.7216C92.9209 23.2424 91.4955 23.053 90.078 23.166V23.164ZM78.434 37.551C74.194 37.544 67.271 42.35 50.367 59.254L50.451 59.34C50.359 59.308 50.266 59.305 50.266 59.305L43.902 65.613C43.7386 65.7684 43.6304 65.973 43.5939 66.1956C43.5575 66.4182 43.5947 66.6466 43.7 66.8461C43.8053 67.0455 43.9728 67.2051 44.1772 67.3006C44.3815 67.3961 44.6114 67.4222 44.832 67.375L55.746 65.047C55.7946 65.002 55.8269 64.9423 55.838 64.877L56.08 65.127L52.36 68.817H52.18L30.094 91.077L37.18 97.901C37.3779 98.0802 37.6279 98.1913 37.8935 98.2181C38.1591 98.2449 38.4263 98.186 38.656 98.05C38.8876 97.9153 39.0731 97.7137 39.1882 97.4717C39.3033 97.2298 39.3426 96.9587 39.301 96.694L38.266 92.194C38.2009 92.1037 38.1659 91.9953 38.1659 91.884C38.1659 91.7727 38.2009 91.6643 38.266 91.574C47.9401 86.962 56.9364 81.0459 65.004 73.991L60.469 69.454L60.555 69.44L57.865 66.751L58.037 66.577L58.219 66.763L58.125 66.854L65.262 74.147V74.144C78.942 61.19 88.652 50.777 86.127 43.769C86.012 42.9309 85.6227 42.1546 85.02 41.561V41.565C84.8665 41.4516 84.7051 41.3493 84.537 41.259C84.454 41.171 84.381 41.081 84.293 40.995L84.227 41.061C84.0412 40.9487 83.8465 40.8517 83.645 40.771L83.934 40.479C82.138 38.879 80.654 37.555 78.434 37.549V37.551ZM29.94 91.21L24.769 96.382V96.386C24.5835 96.5009 24.4392 96.6718 24.3571 96.874C24.275 97.0762 24.2592 97.2993 24.312 97.511C24.363 97.7227 24.4795 97.9129 24.6448 98.0545C24.8102 98.1962 25.016 98.2821 25.233 98.3L37.905 99.175L29.94 91.21Z" fill="white"/>
<path d="M90.95 22.31C88.0477 22.3067 85.2607 23.4454 83.191 25.48C81.7187 26.9871 80.7106 28.8857 80.2869 30.9496C79.8631 33.0135 80.0416 35.1557 80.801 37.121C76.06 35.091 69.646 38.631 49.695 58.578C49.6811 58.6087 49.6687 58.6401 49.658 58.672C49.617 58.69 49.5772 58.7107 49.539 58.734L43.23 65.098C42.9276 65.3948 42.729 65.7812 42.6636 66.1999C42.5982 66.6185 42.6695 67.0471 42.867 67.422C43.0431 67.7187 43.2927 67.9652 43.5917 68.1375C43.8906 68.3098 44.2289 68.4023 44.574 68.406L44.887 68.203L53.311 66.406L49.281 70.473C49.2582 70.5266 49.2401 70.5822 49.227 70.639L29.477 90.438C29.3983 90.5043 29.3331 90.5851 29.285 90.676L24.199 95.766C23.9458 96.0337 23.7728 96.3671 23.6996 96.7283C23.6265 97.0894 23.656 97.4638 23.785 97.809C23.9181 98.1517 24.1431 98.4511 24.4352 98.6742C24.7274 98.8974 25.0754 99.0357 25.441 99.074L38.059 99.954C38.2746 99.8791 38.4581 99.7326 38.579 99.539C38.6869 99.388 38.7449 99.2071 38.7449 99.0215C38.7449 98.8359 38.6869 98.655 38.579 98.504L38.553 98.479C38.826 98.3371 39.0661 98.1395 39.258 97.899C39.4605 97.6359 39.6019 97.3311 39.6721 97.0067C39.7423 96.6822 39.7396 96.3462 39.664 96.023L38.68 91.836C48.1205 87.3246 56.9659 81.6611 65.014 74.975C65.0917 75.0203 65.1751 75.055 65.262 75.078C65.516 75.059 65.754 74.95 65.934 74.77C79.484 61.94 87.449 53.148 87.449 46.168C87.4791 45.1997 87.333 44.2341 87.018 43.318C88.2394 43.8234 89.5419 44.1046 90.863 44.148L90.848 44.152C92.6678 44.0971 94.4469 43.5994 96.031 42.702L96.035 42.703C96.2402 42.7639 96.4609 42.7443 96.652 42.648C97.4165 42.1978 98.1134 41.6416 98.722 40.996C99.7534 39.9843 100.573 38.7771 101.132 37.445C101.692 36.113 101.98 34.6828 101.98 33.238C101.98 31.7933 101.692 30.3631 101.133 29.0311C100.573 27.699 99.7542 26.4918 98.723 25.48C98.686 25.4468 98.6465 25.4164 98.605 25.389C96.5462 23.4129 93.8027 22.3099 90.949 22.311L90.95 22.31ZM90.863 24.082C92.8839 24.0941 94.8454 24.7662 96.449 25.996L88.381 34.113C88.3537 34.1441 88.3283 34.1768 88.305 34.211C88.1596 34.3581 88.0743 34.5543 88.066 34.761C88.0659 34.8859 88.094 35.0092 88.1482 35.1218C88.2024 35.2343 88.2813 35.3332 88.379 35.411H88.381L94.481 41.511C92.8114 42.2397 90.9606 42.4469 89.1711 42.1055C87.3817 41.7642 85.7371 40.8901 84.453 39.598C81.867 36.998 81.117 33.094 82.5 29.707C83.883 26.317 87.18 24.102 90.863 24.082ZM97.983 27.514C99.3022 29.1101 100.021 31.1173 100.016 33.188C100.012 35.6138 99.0454 37.9388 97.328 39.652C96.9836 39.9759 96.6167 40.275 96.23 40.547L91.307 35.7L90.344 34.737L90.609 34.472L97.982 27.512L97.983 27.514ZM97.617 31.707C97.436 31.6501 97.2405 31.6611 97.067 31.738C96.8953 31.8268 96.7659 31.9799 96.707 32.164C96.678 32.2559 96.6676 32.3526 96.6761 32.4485C96.6847 32.5444 96.7122 32.6377 96.757 32.723C96.9343 33.0967 97.0041 33.5123 96.9587 33.9235C96.9133 34.3346 96.7545 34.725 96.5 35.051C96.4348 35.1139 96.3837 35.1899 96.3501 35.2741C96.3165 35.3582 96.3011 35.4485 96.305 35.539C96.309 35.723 96.375 35.899 96.5 36.031C96.6333 36.0819 96.7807 36.0819 96.914 36.031C97.0342 36.061 97.1604 36.0576 97.2788 36.0211C97.3973 35.9846 97.5035 35.9165 97.586 35.824C98.0118 35.3024 98.2814 34.6709 98.3637 34.0026C98.446 33.3343 98.3376 32.6563 98.051 32.047V32.051C97.9533 31.8871 97.7989 31.7647 97.617 31.707ZM78.34 38.43C79.5466 38.4712 80.7077 38.9012 81.65 39.656C80.6354 39.8023 79.6951 40.2723 78.969 40.996L56.162 63.701L51.686 59.225C63.514 47.453 70.746 41.304 75.242 39.289C76.1684 38.7057 77.2455 38.4077 78.34 38.43ZM82.305 41.39C83.0707 41.3906 83.8051 41.694 84.348 42.234C84.6361 42.5053 84.8634 42.8347 85.0149 43.2003C85.1664 43.5659 85.2387 43.9594 85.227 44.355C85.2139 44.7492 85.1196 45.1365 84.9501 45.4926C84.7807 45.8488 84.5396 46.1662 84.242 46.425L59.992 67.531L57.375 64.914L80.262 42.234C80.805 41.6943 81.5394 41.3903 82.305 41.39ZM85.299 48.088C83.609 54.79 74.652 63.871 65.312 72.695L61.535 68.922L85.299 48.088ZM50.367 60.547L50.641 60.817L54.154 64.33L44.524 66.39L50.367 60.547ZM56.16 66.387L56.164 66.391L57.332 67.586L57.35 67.67L57.428 67.682L57.676 67.936L58.496 68.776L53.111 69.436L56.16 66.387ZM60.027 70.463L63.605 74.039C55.6932 80.6179 47.0113 86.2109 37.75 90.695C37.4493 90.8382 37.2076 91.0812 37.0659 91.3825C36.9242 91.6839 36.8914 92.0251 36.973 92.348L38.008 96.848C38.0462 96.9008 38.0667 96.9643 38.0667 97.0295C38.0667 97.0947 38.0462 97.1582 38.008 97.211C37.9511 97.262 37.8774 97.2902 37.801 97.2902C37.7246 97.2902 37.6509 97.262 37.594 97.211L31.492 91.059L50.3 71.975L60.027 70.463ZM30.094 92.403L30.963 93.217L35.455 97.709L25.439 97.061L30.094 92.403Z" fill="#F37036"/>
</svg>
